<svg xmlns="http://www.w3.org/2000/svg" width="1024" height="1024" viewBox="0 0 1024 1024">
  <!-- App Store 用のフルブリード版(角丸なし・透過なし。角丸は OS 側が付ける)
       図形ハンター: 狙いを定める枠 + 角度(金の弧)と面積(塗り分け)の三角形 -->
  <defs>
    <radialGradient id="bg" cx="50%" cy="32%" r="80%">
      <stop offset="0%" stop-color="#1e3358"/>
      <stop offset="100%" stop-color="#0b1424"/>
    </radialGradient>
  </defs>
  <rect width="1024" height="1024" fill="url(#bg)"/>
<g fill="none" stroke="#7ea6e0" stroke-width="26" stroke-linecap="round" stroke-linejoin="round" opacity="0.85">
    <path d="M140 268 L140 140 L268 140"/>
    <path d="M756 140 L884 140 L884 268"/>
    <path d="M884 756 L884 884 L756 884"/>
    <path d="M268 884 L140 884 L140 756"/>
  </g>
  <path d="M242 720 L506 720 L782 304 Z" fill="#2f5aa8"/>
  <path d="M506 720 L782 720 L782 304 Z" fill="#ffd94d"/>
  <path d="M242 720 L782 720 L782 304 Z" fill="none" stroke="#ebf2ff" stroke-width="28" stroke-linejoin="round"/>
  <path d="M506 720 L782 304" fill="none" stroke="#ebf2ff" stroke-width="22"/>
  <path d="M381.7 710.2 A 140 140 0 0 0 358.6 642.5" fill="none" stroke="#ffd94d" stroke-width="30" stroke-linecap="round"/>
</svg>
